<?xml version="1.0" encoding="utf-8"?>
<!-- Svg Vector Icons : http://www.onlinewebfonts.com/icon -->
<!DOCTYPE svg PUBLIC "-//W3C//DTD SVG 1.1//EN" "http://www.w3.org/Graphics/SVG/1.1/DTD/svg11.dtd">
<svg version="1.1" xmlns="http://www.w3.org/2000/svg" xmlns:xlink="http://www.w3.org/1999/xlink" x="0px" y="0px" viewBox="0 0 256 256" enable-background="new 0 0 256 256" xml:space="preserve">
<metadata> Svg Vector Icons : http://www.onlinewebfonts.com/icon </metadata>
<g><g><path fill="#000000" d="M216.9,22.8h-63.1l-4.3,4.3L129,47.7H10v126.2c0,9.5,7.7,17.3,17.3,17.3h60.6l8.3-14.8H34.6l24.3-85.1h172.3v85.1h-76.4l8.3,14.8h83V51.8C246,31.7,237,22.8,216.9,22.8z M231.1,76.4H53.3c-3.3,0-6.2,2.2-7.1,5.4l-21.3,74.6V62.5h110.3L160,37.6H217c11.8,0,14.2,2.4,14.2,14.2L231.1,76.4L231.1,76.4z"/><path fill="#000000" d="M156.4,201.5c0-1.2-0.3-2.5-1.1-3.9l-24.6-44.1c-2.9-5.2-7.6-5.2-10.5,0l-24.7,44.1c-0.8,1.4-1.1,2.7-1.1,3.8c0,3.3,2.8,5.6,7.5,5.6h9.3v26.2h28.4v-26.2h9.3C153.6,207,156.4,204.8,156.4,201.5z"/></g></g>
</svg>